<svg
  viewBox="0 0 120 120"
  fill="currentColor"
  fill-rule="evenodd"
  stroke="currentColor"
  xmlns="http://www.w3.org/2000/svg"
>
  <path
    d="m 51.459227,4.5086866 c -1.656341,0.3906656 -3.81393,1.7676104 -5.57948,3.5604957 -3.411589,3.4643387 -5.606683,8.3993057 -6.415759,14.4232987 -0.106454,0.793282 -0.194923,1.766924 -0.196294,2.163495 -0.0015,0.396573 -0.02897,0.721166 -0.061,0.721166 -0.03213,0 -0.520197,-0.184894 -1.084767,-0.410995 -2.956778,-1.183948 -6.239107,-1.111831 -8.936539,0.196431 -0.538059,0.260856 -1.283675,0.72927 -1.657032,1.040538 -0.66306,0.553306 -0.694654,0.563607 -1.373648,0.45399 -2.699492,-0.43627 -5.190327,0.236817 -7.001619,1.8922 -0.989851,0.904684 -1.54082,1.705108 -2.017889,2.931226 -0.344372,0.885316 -0.417039,0.976801 -0.845891,1.065951 -2.650041,0.550558 -5.23923,2.936034 -6.136908,5.654068 -0.3784396,1.1459 -0.5656673,2.584245 -0.4766551,3.660364 l 0.073904,0.892869 -0.8527605,0.480775 c -1.5273589,0.861279 -2.8394676,2.713505 -3.3529361,4.733589 -0.4105837,1.615 -0.2178606,3.938386 0.4545392,5.480307 l 0.2436854,0.558937 -0.6276192,0.829271 c -1.1114185,1.468701 -1.6523608,3.115158 -1.6523608,5.029196 0,2.462266 0.6567407,4.208169 2.3213276,6.171249 l 0.4076984,0.480776 -0.3513793,1.030238 c -0.4305007,1.262106 -0.5557775,2.980951 -0.3193727,4.382622 0.3406635,2.019674 1.8540112,4.306662 3.5721694,5.398162 l 0.6164937,0.391624 0.01759,1.198232 c 0.03365,2.294681 0.823364,4.21188 2.388635,5.79913 1.030922,1.045346 2.735894,1.995497 3.844565,2.142616 l 0.666768,0.08846 0.21635,0.95757 c 0.8757,3.878083 4.473146,6.505456 8.528841,6.228945 l 1.236283,-0.08435 0.458248,0.683394 c 1.319801,1.968297 4.415728,3.210213 6.752028,2.708691 0.862925,-0.185164 0.897953,-0.182007 1.093972,0.101243 0.604954,0.874466 2.351685,2.011021 3.783846,2.462269 0.784902,0.24726 1.276945,0.30165 2.678616,0.29588 1.490542,-0.006 1.854971,-0.0548 2.762404,-0.370338 0.575011,-0.199861 1.4095,-0.582835 1.854427,-0.851108 0.744926,-0.449183 0.895066,-0.487919 1.892746,-0.488194 l 1.083672,-4.16e-4 1.046718,0.995895 c 5.45874,5.193221 15.621673,7.226351 24.462741,4.894041 7.382809,-1.9477 13.654747,-6.995995 17.028696,-13.706265 0.597813,-1.189027 1.518568,-3.747449 1.797006,-4.992932 l 0.176514,-0.789849 0.83669,-0.0046 c 2.776002,-0.01485 4.419712,-0.738609 5.806129,-2.556496 0.18133,-0.237502 0.66031,-1.19576 1.06458,-2.129152 0.40413,-0.933532 1.82901,-4.108031 3.16612,-7.054504 2.86736,-6.318232 2.93809,-6.483754 3.49181,-8.173203 0.90894,-2.773122 0.88381,-2.472976 0.93931,-11.222837 0.0365,-5.750505 0.006,-8.159882 -0.10757,-8.582962 -0.21827,-0.810456 -1.12283,-1.696183 -1.96116,-1.920498 l -0.64204,-0.171706 V 32.885415 c 0,-7.653828 -0.0426,-10.437249 -0.16636,-10.857723 -0.22417,-0.7621 -1.5154,-2.065279 -2.24783,-2.268578 -0.37432,-0.103981 -5.16011,-0.149042 -15.649281,-0.147393 -14.395549,0.0021 -15.136499,0.01414 -15.668511,0.255773 -0.802622,0.364566 -1.49329,1.019246 -1.865414,1.768159 l -0.323492,0.650834 -0.06868,8.343398 -0.06868,8.3434 -0.411129,-0.788339 C 69.592326,37.203064 68.014006,35.591363 67.012618,35.027619 66.597092,34.793685 65.874963,34.49011 65.407784,34.35302 64.644174,34.128979 64.550493,34.061395 64.47975,33.684053 64.305023,32.752858 63.459953,31.297616 62.59057,30.430706 61.171455,29.015849 59.410714,28.261854 57.525796,28.261854 H 56.61328 l -0.956604,-0.927212 c -1.121997,-1.087379 -2.195093,-1.758406 -3.539894,-2.213358 -1.9172,-0.648637 -5.277138,-0.521436 -7.069476,0.267587 -0.332698,0.146568 -0.627209,0.244097 -0.654403,0.216899 -0.107702,-0.10769 0.369786,-3.16722 0.695339,-4.454877 0.813883,-3.219555 2.39509,-6.192265 4.38839,-8.250127 0.842868,-0.870068 2.467484,-1.972833 3.401291,-2.308553 1.598515,-0.574871 2.596056,-1.7998894 2.596056,-3.1880978 0,-2.1251704 -1.794261,-3.4191461 -4.014761,-2.8953754 M 74.979772,33.412346 v 9.547536 h 13.633464 13.633444 l -0.0332,-9.512507 -0.0334,-9.512511 L 88.58,23.899841 74.979788,23.864807 v 9.547537 m 8.162078,-7.222364 c -0.03157,0.03145 -0.05755,1.870359 -0.05755,4.086602 v 4.02932 h -1.09892 -1.098914 v -4.05226 -4.05226 h -1.30497 -1.304964 v 5.501458 c 0,5.967128 0.01402,6.08636 0.751659,6.42249 0.268004,0.12212 2.752515,0.164152 9.705094,0.164152 h 9.344929 l 0.401518,-0.401519 0.401514,-0.401514 v -5.642533 -5.642533 h -1.236283 -1.236283 v 4.05226 4.052261 l -1.064576,-2.75e-4 -1.064577,-1.37e-4 0.0096,-4.052122 0.0097,-4.051987 H 93.08714 91.875581 v 4.05226 4.052261 H 90.91609 89.956594 l -0.0364,-4.086601 -0.0364,-4.086602 h -1.167517 -1.167601 l -0.0364,4.086602 -0.0364,4.086601 H 86.516389 85.5569 v -4.086601 l 1.34e-4,-4.086602 h -1.178727 c -0.64836,0 -1.204686,0.02582 -1.236418,0.05728 M 32.273798,28.05828 c -1.175706,0.330225 -2.002366,0.858392 -3.039333,1.942337 -0.53064,0.554679 -1.071582,1.0154 -1.202079,1.02378 -0.566355,0.03627 -0.949465,-0.06525 -1.602085,-0.424733 -0.86842,-0.478303 -1.637251,-0.597123 -2.576277,-0.398082 -2.086433,0.442177 -3.264198,1.713763 -3.619286,3.907341 -0.105911,0.653993 -0.271707,1.284497 -0.368412,1.401119 -0.306598,0.369787 -1.030236,0.581605 -1.991514,0.582975 -1.221722,0.0015 -2.134923,0.424457 -3.184527,1.474065 -1.379555,1.379554 -1.815139,3.351288 -1.13065,5.118073 0.591905,1.527768 0.285994,2.308824 -1.05551,2.694684 -1.569943,0.451655 -2.6404261,1.355652 -3.295793,2.783421 -0.2879171,0.627209 -0.3539884,0.978175 -0.3524782,1.870906 0.00231,1.355516 0.283658,2.050581 1.2714482,3.141396 1.101803,1.216643 1.028862,1.466921 -0.8914973,3.058018 -0.4259677,0.352887 -0.8614138,0.898087 -1.1520786,1.442326 -0.4026155,0.753856 -0.4747323,1.036417 -0.521848,2.042478 -0.044232,0.949054 2.75e-4,1.312792 0.2379149,1.943023 0.3891554,1.032435 0.9799611,1.822004 1.7630775,2.35663 1.6276345,1.111146 1.7630765,1.606344 0.8570185,3.13164 -0.6446523,1.085048 -0.8004244,1.466511 -0.975701,2.389462 -0.1674483,0.881059 0.042036,1.941654 0.587097,2.973397 0.534623,1.011968 0.926799,1.368978 2.172834,1.978193 1.797006,0.878582 2.140007,1.444389 1.73011,2.854298 -0.538882,1.853877 -0.0016,3.82396 1.371724,5.029886 0.842596,0.739708 1.590272,1.001113 2.955266,1.032845 1.915688,0.0445 2.334514,0.466768 2.384926,2.404434 0.02788,1.071856 0.08914,1.348098 0.472261,2.126131 0.488331,0.991914 1.205513,1.670079 2.29193,2.166654 0.959219,0.438608 2.718999,0.44122 3.723272,0.0053 1.481205,-0.642727 2.239046,-0.283522 2.866391,1.358128 0.630641,1.650297 1.59659,2.453745 2.94977,2.453745 1.160596,0 1.568294,-0.340116 1.720769,-1.435189 0.166898,-1.198643 1.141226,-1.80497 1.968849,-1.225157 0.37844,0.265116 0.832567,1.201805 0.836826,1.726404 0.01689,2.07613 1.539997,3.584257 3.81228,3.774783 1.356343,0.113595 2.524494,-0.260584 3.952809,-1.266504 l 1.09796,-0.773361 1.098914,0.106316 c 2.336164,0.225965 3.53179,2.75e-4 4.940054,-0.932432 0.805503,-0.533524 1.624884,-1.549609 1.915274,-2.374764 0.120469,-0.342171 0.314703,-0.894655 0.4316,-1.227763 0.287643,-0.819246 0.775012,-1.042325 2.280668,-1.04411 1.357027,-0.0015 2.210611,-0.330776 3.184115,-1.228179 0.85496,-0.788059 1.219663,-1.697963 1.209359,-3.016665 -0.0046,-0.573225 0.0555,-1.24123 0.133245,-1.48423 0.197665,-0.618413 0.811687,-1.085592 1.786291,-1.359083 1.686837,-0.473221 3.048396,-1.727498 3.562691,-3.28151 0.278162,-0.840943 0.227891,-2.205114 -0.117993,-3.19428 -0.165113,-0.472531 -0.300281,-0.954683 -0.300281,-1.071445 0,-0.449319 0.419649,-0.980096 1.297686,-1.640959 2.575451,-1.938625 3.100595,-4.916696 1.489858,-8.447929 -0.840127,-1.841925 -0.859908,-2.043988 -0.865401,-8.86003 -0.0058,-7.061372 0.03857,-6.770297 -1.24054,-8.122786 -0.581465,-0.614848 -0.681603,-0.800842 -0.681603,-1.265544 0,-0.420614 0.1088,-0.674874 0.478165,-1.116914 0.62075,-0.743006 0.800561,-1.452634 0.732154,-2.889743 -0.0404,-0.851388 -0.140934,-1.345902 -0.369236,-1.817473 -0.795068,-1.642468 -2.501961,-2.851006 -4.026848,-2.851006 -0.923916,0 -1.670219,-0.2636 -1.885743,-0.66622 -0.08159,-0.152471 -0.148354,-0.579127 -0.148354,-0.948227 0,-1.513484 -0.736962,-2.882324 -1.881761,-3.495108 -0.906608,-0.485172 -1.704007,-0.573361 -2.90334,-0.321159 -1.264853,0.266076 -1.789311,0.09437 -2.205938,-0.722126 -0.491083,-0.962653 -1.610468,-2.049621 -2.603201,-2.527925 -0.7893,-0.380224 -1.096173,-0.448083 -2.245915,-0.497123 -1.586425,-0.06772 -2.625453,0.197394 -4.539081,1.158536 -2.818589,1.415543 -4.443339,1.328729 -7.067965,-0.378166 -1.71967,-1.118287 -3.96421,-1.584503 -5.522338,-1.146858 m 3.426152,4.220807 c -0.260856,0.08764 -0.70894,0.394099 -0.995895,0.681054 -0.426106,0.426106 -0.521575,0.619927 -0.521575,1.058807 0,0.431326 0.08338,0.607427 0.422673,0.892872 0.471573,0.396846 0.753033,0.428165 1.759917,0.195743 0.67817,-0.156457 0.709351,-0.149315 1.507852,0.343413 0.994243,0.613746 1.418014,0.635863 1.952088,0.101786 0.870343,-0.870343 0.284347,-2.331079 -1.246859,-3.10774 -0.584626,-0.29657 -2.210472,-0.390254 -2.878201,-0.165937 m 11.58548,-0.03641 c -0.435446,0.175964 -0.877487,0.812513 -0.877487,1.263756 0,0.546162 0.533113,1.046307 1.234497,1.158534 0.833943,0.133381 1.394251,0.571988 1.822829,1.426805 0.478581,0.954548 0.816361,1.236147 1.483265,1.236147 1.240541,0 1.707033,-1.220623 1.031885,-2.699353 -0.728993,-1.596178 -2.052503,-2.524077 -3.580687,-2.510478 -0.453306,0.004 -0.954687,0.06017 -1.114302,0.124589 m -23.225358,3.704178 c -2.326135,1.056057 -3.487966,4.543473 -1.946047,5.840883 0.54108,0.455367 1.247959,0.466493 1.687527,0.02695 0.238327,-0.238327 0.346708,-0.548496 0.419924,-1.201939 0.134617,-1.200295 0.369236,-1.635466 1.135182,-2.106076 1.075978,-0.661137 1.270761,-0.889163 1.270761,-1.487937 0,-1.171994 -1.222546,-1.682304 -2.567347,-1.071855 m 32.502284,2.469403 c -0.737507,0.737513 -0.481736,1.68121 0.603447,2.22572 1.143833,0.57405 1.514721,1.102902 1.732857,2.471329 0.09808,0.615123 0.228026,0.949056 0.435447,1.118976 0.667314,0.546576 1.460186,0.458659 1.963899,-0.217861 0.238192,-0.32006 0.288743,-0.58421 0.288743,-1.511013 0,-0.927899 -0.06319,-1.258125 -0.363743,-1.899066 -0.6974,-1.487521 -2.222838,-2.585481 -3.596073,-2.588228 -0.550693,-0.001 -0.731054,0.06662 -1.064577,0.400143 m -26.441339,4.945408 c -0.743556,0.426516 -1.200156,0.941635 -1.713487,1.933408 -0.468277,0.904546 -0.545064,2.895926 -0.136816,3.545387 0.330911,0.526515 1.089577,0.893554 1.588074,0.768554 0.60358,-0.151517 0.889574,-0.676795 0.889574,-1.633404 0,-1.187658 0.185855,-1.609642 1.024329,-2.325998 0.787238,-0.672539 0.946443,-1.063207 0.739297,-1.813766 -0.142585,-0.516079 -0.682977,-0.876796 -1.310322,-0.87474 -0.211542,10e-4 -0.697813,0.181052 -1.080649,0.400559 m 13.028222,0.143956 c -0.427477,0.260583 -0.658115,0.740398 -0.620065,1.289721 0.0273,0.393134 0.444927,0.783527 1.200153,1.121716 0.377757,0.169101 0.792597,0.425147 0.921996,0.568969 0.314152,0.349315 0.657701,1.191774 0.657701,1.612932 0,0.187095 0.149179,0.51361 0.331461,0.725562 0.27322,0.317589 0.441905,0.385445 0.958535,0.385445 0.502201,0 0.702619,-0.07582 1.007706,-0.381182 0.34753,-0.347945 0.380362,-0.468139 0.374454,-1.373652 -0.0085,-1.32488 -0.405225,-2.21844 -1.38038,-3.109799 -1.151937,-1.052766 -2.545914,-1.391916 -3.451561,-0.839712 m -24.784035,1.84316 c -0.915261,0.326929 -1.698515,1.11774 -2.214595,2.235885 -0.255224,0.553169 -0.306323,0.904136 -0.306323,2.10608 0,1.235183 0.04465,1.525848 0.310856,2.024068 0.388605,0.727347 0.885316,1.060459 1.581618,1.060459 0.425556,0 0.613196,-0.08448 0.881744,-0.396711 0.285307,-0.331737 0.327615,-0.488469 0.258796,-0.958395 -0.334209,-2.279292 -0.262779,-2.630944 0.762923,-3.752532 0.422397,-0.46182 0.530366,-0.686685 0.528031,-1.098914 -0.0032,-0.550013 -0.285032,-1.00551 -0.77776,-1.257575 -0.366214,-0.187229 -0.399182,-0.185994 -1.02529,0.03764 m 34.900398,0.622537 c -0.652892,0.652897 -0.561544,1.120895 0.405226,2.075719 0.990812,0.978451 1.111006,1.412246 0.708802,2.556911 -0.373354,1.062099 -0.353022,1.369388 0.122255,1.844671 0.296163,0.296157 0.532288,0.401514 0.899739,0.401514 0.812928,0 1.289996,-0.340387 1.698519,-1.211695 0.487503,-1.040123 0.520196,-2.773531 0.07074,-3.750196 -0.891775,-1.937665 -2.899223,-2.92298 -3.905283,-1.916924 m 19.375024,1.388208 c -0.273081,0.273081 -0.277888,0.405641 -0.240389,6.605735 l 0.03832,6.327022 0.324318,0.262505 c 0.314977,0.254945 0.769654,0.262504 15.837472,0.262504 h 15.513305 l 0.33709,-0.33725 0.33723,-0.337088 v -6.25642 c 0,-6.073167 -0.008,-6.264378 -0.27473,-6.531005 -0.27157,-0.271569 -0.45784,-0.274732 -15.934315,-0.274732 -15.551065,0 -15.661503,0.0021 -15.938296,0.278714 m -10.754287,3.700334 c -0.503163,0.597949 -0.482837,1.168286 0.06826,1.917611 0.579133,0.787514 0.666495,1.70099 0.26374,2.757321 -0.373358,0.979277 -0.363193,1.263483 0.06347,1.770498 0.671852,0.798499 1.786155,0.661821 2.37023,-0.29053 1.106059,-1.80346 0.860313,-4.592514 -0.523773,-5.944048 -0.432425,-0.422259 -0.65798,-0.531737 -1.202905,-0.58407 -0.620886,-0.05976 -0.698086,-0.03203 -1.039028,0.373218 m -27.085717,3.690989 c -0.226789,0.138329 -0.597674,0.586272 -0.824189,0.995485 -0.367176,0.662923 -0.412094,0.871168 -0.412094,1.911567 0,1.329967 0.344236,2.269267 1.180513,3.221755 0.512783,0.584075 1.626124,1.170481 2.226133,1.172543 0.571163,0.0021 1.13381,-0.343413 1.329688,-0.81636 0.255086,-0.615667 -0.0136,-1.144659 -0.839296,-1.652768 -1.164715,-0.716637 -1.473923,-1.572692 -0.943696,-2.611996 0.407699,-0.799185 0.369786,-1.71074 -0.08874,-2.135747 -0.43792,-0.405775 -1.04933,-0.437507 -1.628323,-0.08448 m -11.342345,0.3628 c -0.882156,0.479676 -1.583953,2.257586 -1.466919,3.715992 0.117585,1.464994 1.113068,3.037271 2.136847,3.375186 0.73133,0.241354 1.445626,-0.0232 1.740549,-0.644653 0.281872,-0.594101 0.200689,-0.996991 -0.32212,-1.598926 -0.82309,-0.947538 -0.902212,-1.568289 -0.363331,-2.84853 0.23723,-0.563746 0.315665,-0.941501 0.256736,-1.236423 -0.1658,-0.829132 -1.157573,-1.210869 -1.981762,-0.762646 m 24.463426,1.484359 c -0.187365,0.09492 -0.418278,0.325835 -0.513198,0.513199 -0.334893,0.662097 -0.221292,0.95949 0.705095,1.845766 0.994109,0.950978 1.178453,1.446455 0.919935,2.472982 -0.227617,0.904272 -0.189426,1.246033 0.189561,1.696592 0.429678,0.510447 1.139302,0.668551 1.699889,0.378713 0.652348,-0.337365 1.116915,-1.435874 1.116915,-2.641111 0,-1.44604 -0.382973,-2.390973 -1.356341,-3.347166 -1.007572,-0.989716 -1.981486,-1.313759 -2.761856,-0.918975 m -33.985822,0.248774 c -0.839162,0.660036 -1.309361,2.362806 -1.042736,3.775878 0.459485,2.435476 2.640974,4.028634 3.854592,2.815153 0.58229,-0.58229 0.541218,-1.101525 -0.146293,-1.847277 -0.585998,-0.635863 -0.963202,-1.385603 -0.963202,-1.914869 0,-0.179535 0.125276,-0.690257 0.278301,-1.135044 0.229812,-0.668281 0.250416,-0.875976 0.117996,-1.195621 -0.312917,-0.755507 -1.433538,-1.021444 -2.098658,-0.49822 m 43.416189,4.800619 c -0.542314,0.426657 -0.597673,1.050154 -0.173076,1.947697 0.195468,0.413329 0.355498,0.917598 0.355498,1.120486 0,0.632286 -0.394374,1.368012 -1.039578,1.939726 -0.846716,0.750285 -0.962237,1.384772 -0.361543,1.985472 0.879958,0.879958 2.307044,0.385991 3.344696,-1.157576 0.665119,-0.989576 0.842183,-1.657441 0.782291,-2.952106 -0.10687,-2.309098 -1.669259,-3.858302 -2.908288,-2.883699 m 16.326762,3.462557 c 0.159345,0.752205 0.637515,1.752223 0.93889,1.963215 0.245745,0.172257 2.214048,0.200277 14.041976,0.200277 13.462289,0 13.763399,-0.0058 14.098839,-0.269643 0.33421,-0.262921 0.80537,-1.202496 0.98422,-1.962535 l 0.0889,-0.377751 H 88.708042 73.58432 l 0.09451,0.446437 m -9.428851,1.12639 c -0.59108,0.332422 -0.742456,0.894521 -0.535726,1.989588 0.269649,1.429556 0.137228,1.847559 -0.903035,2.849637 -0.755091,0.727481 -0.881053,0.917868 -0.881053,1.331613 0,0.634073 0.467588,1.170348 1.109354,1.272407 1.169113,0.185995 2.842764,-1.107569 3.416264,-2.640424 0.534758,-1.429142 0.258245,-3.558299 -0.58875,-4.532628 -0.367035,-0.42212 -1.122408,-0.548357 -1.617056,-0.270193 m -34.463168,0.931196 c -0.592317,0.307698 -0.848914,1.000976 -0.785314,2.121459 0.103022,1.815274 1.158534,3.271889 2.825593,3.899098 1.445627,0.543965 2.630123,0.08667 2.630123,-1.015259 0,-0.64795 -0.341078,-1.03285 -1.294525,-1.460603 -1.065539,-0.478032 -1.347137,-0.884494 -1.463073,-2.110886 -0.0625,-0.661137 -0.167859,-1.017737 -0.356461,-1.206338 -0.343549,-0.343412 -1.115676,-0.456328 -1.556343,-0.227475 m 13.340454,0.742045 c -0.47872,0.335308 -0.721304,1.018421 -0.560589,1.57887 0.428168,1.492879 -0.01962,2.431628 -1.65332,3.466125 -0.97048,0.614571 -0.998781,1.700164 -0.05454,2.094813 0.582975,0.243545 0.801387,0.240113 1.698104,-0.02611 0.934627,-0.277618 2.055934,-1.311147 2.579707,-2.37765 0.32789,-0.66759 0.378442,-0.935588 0.378442,-2.006763 0,-1.433262 -0.314978,-2.222973 -1.070075,-2.683418 -0.537776,-0.328029 -0.897258,-0.340526 -1.317731,-0.0459 m -23.466434,0.562644 c -0.419374,0.07638 -0.970894,0.769795 -1.081611,1.360188 -0.509348,2.714875 1.985883,5.665611 4.406937,5.211478 0.92158,-0.172941 1.292053,-1.332848 0.651933,-2.041241 -0.13132,-0.145468 -0.516904,-0.406461 -0.856881,-0.580089 -0.339978,-0.173625 -0.799051,-0.506323 -1.020209,-0.739156 -0.354949,-0.37391 -0.411545,-0.552209 -0.482836,-1.522006 -0.06223,-0.846715 -0.143273,-1.158255 -0.35344,-1.358538 -0.300554,-0.286402 -0.795479,-0.415936 -1.263893,-0.330635 m 56.568868,3.447994 c 0.148764,0.440389 0.446982,1.012104 0.662782,1.270621 l 0.392314,0.470066 11.175997,0.03365 c 8.695601,0.02611 11.252237,-0.0042 11.519409,-0.137363 0.342173,-0.170336 1.003443,-1.328042 1.176663,-2.059787 l 0.0894,-0.37775 H 88.602821 75.959359 l 0.270334,0.80056 m -23.852567,1.597141 c -0.291215,0.291075 -0.337229,0.463191 -0.337229,1.261556 0,1.563622 -0.650696,2.475452 -2.090283,2.929028 -0.280909,0.08846 -0.672673,0.353443 -0.870754,0.588884 -0.443275,0.526795 -0.380362,1.111006 0.171842,1.596314 0.331736,0.291625 0.466768,0.318824 1.292469,0.259623 2.814052,-0.201242 4.851446,-3.063235 4.101847,-5.761906 -0.303026,-1.091226 -1.564448,-1.577084 -2.267892,-0.873499 m 19.893985,0.432834 c -0.158929,0.223079 -0.624872,0.673774 -1.035315,1.001254 -0.743832,0.593551 -0.746027,0.597538 -0.636274,1.163479 0.655094,3.381094 -1.292878,7.248186 -4.432489,8.799861 l -1.045481,0.516765 -0.08778,0.661273 c -0.230358,1.736428 -1.112242,3.356095 -2.588777,4.754059 -1.022404,0.96801 -1.925991,1.496311 -3.262137,1.907445 -0.415526,0.127747 -0.848226,0.262645 -0.961551,0.29973 -0.304537,0.09973 1.154684,0.803172 2.791115,1.345765 2.201816,0.729819 3.845936,0.946028 6.534852,0.859213 2.448253,-0.07899 3.590165,-0.269508 5.595278,-0.933117 2.501686,-0.828036 4.743343,-2.194262 6.515897,-3.971353 1.246172,-1.249195 2.016102,-2.352372 2.817079,-4.036328 l 0.597533,-1.256063 -1.402357,-0.09025 c -0.7713,-0.04973 -1.697138,-0.183107 -2.057449,-0.296433 -1.317326,-0.414565 -2.549627,-1.431341 -3.312548,-2.733144 -0.307149,-0.524183 -3.498682,-7.64119 -3.678083,-8.202324 -0.04423,-0.137913 -0.147803,-0.0761 -0.351517,0.210167 m 6.633761,3.969016 c 0.147938,0.71361 0.755917,1.950444 1.139301,2.317759 l 0.368551,0.353163 8.124162,0.03821 8.124029,0.03821 0.368411,-0.343412 c 0.438608,-0.408663 1.107299,-1.681345 1.23161,-2.343717 l 0.0886,-0.472262 h -9.764986 -9.765121 l 0.08544,0.412095 M 58.998648,79.0942 c -0.207005,0.162776 -0.420885,0.525694 -0.505774,0.858526 -0.25399,0.99562 -0.425556,1.314995 -0.971032,1.807721 -0.570888,0.515804 -1.054961,0.699188 -1.522274,0.577068 -0.388473,-0.101648 -1.152219,0.226379 -1.338758,0.574875 -0.670752,1.253452 0.728308,2.409787 2.507454,2.072418 1.980664,-0.37569 3.61901,-2.063904 3.884812,-4.00322 0.218136,-1.592057 -1.003309,-2.714324 -2.054428,-1.887388 m -33.820151,0.218681 c -0.696441,0.751384 -0.345199,2.573253 0.72556,3.764347 0.846717,0.941631 1.765961,1.392466 3.005404,1.473784 1.148369,0.07528 1.85772,-0.119093 2.248798,-0.616218 0.711549,-0.904546 0.04533,-1.868574 -1.405928,-2.034647 -1.406615,-0.160856 -1.9683,-0.595886 -2.300311,-1.781893 -0.219371,-0.783117 -0.681054,-1.168837 -1.399197,-1.168837 -0.404677,0 -0.620615,0.0897 -0.874326,0.363464 m 11.431494,2.389736 c -1.069247,0.841082 -0.128985,2.828204 1.762112,3.724231 0.662237,0.313882 1.013069,0.390393 1.785745,0.389983 1.589035,-10e-4 2.549902,-0.414155 3.201698,-1.376122 0.406871,-0.600696 0.333933,-1.299197 -0.182697,-1.748106 -0.467729,-0.406326 -1.035456,-0.392448 -1.934645,0.0474 -1.067738,0.522537 -1.668022,0.390252 -2.629984,-0.579404 -0.829271,-0.835999 -1.36568,-0.95867 -2.002229,-0.457973 m 50.467398,4.14498 c -1.331199,4.133444 -4.825898,8.223891 -9.003161,10.537937 -3.474364,1.924754 -6.941863,2.775182 -11.336302,2.78054 -3.832614,0.0046 -6.364657,-0.586688 -10.066086,-2.350861 l -1.205926,-0.574733 -0.66773,0.523499 c -0.367316,0.288053 -0.782708,0.59218 -0.923092,0.675969 -0.226926,0.135308 -0.146158,0.222944 0.725151,0.786554 2.196183,1.420625 5.201177,2.626829 7.907127,3.173949 2.354703,0.47597 6.172485,0.51183 8.832275,0.0828 2.528065,-0.4077 5.173983,-1.26677 7.425806,-2.410894 4.072176,-2.069126 7.844624,-5.772616 9.765671,-9.587236 0.495609,-0.984219 1.553181,-3.96572 1.556754,-4.388665 0.0015,-0.212778 -0.152887,-0.240388 -1.344525,-0.240388 H 87.39676 l -0.319375,0.991497 m -37.148512,1.996874 c -0.239562,0.145742 -0.562644,0.587371 -0.824189,1.126528 -0.606192,1.249746 -0.900974,1.42612 -2.530806,1.513896 -0.73353,0.03956 -1.411286,0.12212 -1.506207,0.183518 -0.09506,0.06154 -0.268548,0.297123 -0.385585,0.523638 -0.16937,0.3272 -0.182417,0.504539 -0.06374,0.863886 0.315662,0.956467 1.19356,1.38285 2.651,1.287654 1.168978,-0.07637 2.226545,-0.524319 3.143869,-1.331888 1.556343,-1.369934 1.953189,-3.614479 0.740944,-4.18976 -0.582149,-0.276102 -0.739024,-0.27322 -1.225292,0.02253"
    stroke="none"
  />
  <style>
    @media (prefers-color-scheme: dark) {
      svg {
        fill: #fff;
        stroke: #fff;
      }
    }
  </style>
</svg>
